<?xml version="1.0" encoding="UTF-8"?><svg id="Interact_With_Your_Viewers" xmlns="http://www.w3.org/2000/svg" viewBox="0 0 3646.59 2393.61"><defs><style>.cls-1,.cls-2,.cls-3{stroke-width:0px;}.cls-2{fill:#bfdbff;}.cls-4{stroke:red;stroke-width:25px;}.cls-4,.cls-5,.cls-6,.cls-7{stroke-miterlimit:10;}.cls-4,.cls-6,.cls-7{fill:none;}.cls-5{fill:#fff;stroke-width:20px;}.cls-5,.cls-6,.cls-7{stroke:#000;}.cls-6{stroke-width:10px;}.cls-3{fill:#212121;}.cls-7{stroke-width:32px;}</style></defs><g id="Graph"><polyline class="cls-7" points="1931.62 2066.08 333.5 2066.08 333.5 338.08"/><path class="cls-1" d="M887.46,2170.52c0,7.88-2.07,14.26-6.2,19.14-4.43,5.18-10.53,7.76-18.31,7.76-1.3,0-3.26-.07-5.88-.22-2.62-.15-4.58-.22-5.88-.22-1.4,0-2.1.6-2.1,1.81,0,1.5.15,3.73.44,6.69.29,2.96.44,5.18.44,6.64,0,.75-.34,1.12-1.03,1.12-1.99,0-4.96-.06-8.94-.17-3.97-.11-6.95-.17-8.94-.17-.94,0-1.42-.47-1.42-1.42,0-3.61.06-9.04.17-16.28.11-7.24.17-12.67.17-16.28,0-10.22-.44-20.96-1.32-32.23l-.05-.68c-.07-.62.42-.99,1.46-1.12,2.54-.33,8.14-.49,16.8-.49,5.11,0,10.01.07,14.7.2,7.71.23,13.93,2.65,18.65,7.28,4.82,4.75,7.23,10.97,7.23,18.65ZM867.98,2171.31c0-7.58-3.69-11.38-11.08-11.38-5.21,0-7.94.29-8.2.88-.23.42-.34,4.18-.34,11.28,0,1.01.04,2.5.12,4.47.08,1.97.12,3.46.12,4.47,0,.65,2.93.98,8.79.98,7.06,0,10.6-3.56,10.6-10.69Z"/><path class="cls-1" d="M942.88,2188.49c0,2.51.15,6.23.44,11.18.29,4.95.44,8.66.44,11.13,0,1.3-.57,2-1.71,2.1-4.04.29-8.66.44-13.87.44-.62,0-1.03-.94-1.25-2.81-.21-1.87-.46-2.82-.76-2.86-.26.13-.6.41-1.03.83-3.65,3.68-7.55,5.52-11.72,5.52-6.35,0-11.6-2.51-15.77-7.52-3.94-4.69-5.91-10.29-5.91-16.8,0-7.52,2.03-13.57,6.1-18.16,4.23-4.75,10.03-7.13,17.38-7.13,5.11,0,9.15,1.79,12.11,5.37.13.16.24.24.34.24.29,0,.63-.79,1-2.37.37-1.58.82-2.37,1.34-2.37,1.2,0,3.5.34,6.88,1.03,3.22.65,5.53,1.2,6.93,1.66.49.2.73.46.73.78,0,.13-.05.47-.15,1.03-1.04,5.89-1.56,12.13-1.56,18.7ZM927.16,2188.79c0-2.77-.87-5.05-2.61-6.86-1.74-1.81-4.01-2.71-6.81-2.71s-5.06.9-6.79,2.69c-1.73,1.79-2.59,4.09-2.59,6.88,0,2.64.91,4.9,2.73,6.79,1.82,1.89,4.04,2.83,6.64,2.83,2.77,0,5.03-.9,6.79-2.71s2.64-4.11,2.64-6.91Z"/><path class="cls-1" d="M981.16,2173.4c0,.33-.24.77-.73,1.32-.91-.23-1.82-.34-2.73-.34-1.92,0-3.53.42-4.83,1.27-1.56.98-2.34,2.36-2.34,4.15,0,1.14.83,2.59,2.49,4.35,2.51,2.64,4.05,4.41,4.64,5.32,1.66,2.47,2.49,5.13,2.49,7.96,0,1.66-.33,3.42-.98,5.27-.75,2.05-1.69,3.55-2.83,4.49-2.41,2.08-5.22,3.84-8.45,5.27-3.48,1.5-6.69,2.25-9.62,2.25-.65,0-2.11-1.77-4.37-5.3-2.26-3.53-3.39-5.69-3.39-6.47,0-.29.18-.47.54-.54,2.28-.42,4.57-.85,6.88-1.27,2.86-.91,4.3-2.41,4.3-4.49,0-1.43-.83-3.09-2.49-4.98-2.96-3.29-4.51-5.03-4.64-5.22-1.66-2.34-2.49-4.82-2.49-7.42,0-4.88,2.47-9.03,7.42-12.45,4.43-3.03,9.16-4.54,14.21-4.54.52,0,1.81,1.75,3.86,5.25,2.05,3.5,3.08,5.54,3.08,6.13Z"/><path class="cls-1" d="M1020.86,2198.6c0,.98-.12,2.46-.37,4.44-.24,1.99-.37,3.44-.37,4.37s-.1,1.52-.29,1.78c-.2.26-.73.63-1.61,1.12-4.2,2.31-8.85,3.47-13.96,3.47-9.41,0-14.11-3.6-14.11-10.79,0-2.15.08-5.38.24-9.69.16-4.31.24-7.54.24-9.69,0-1.43-.83-2.15-2.49-2.15h-.63c-.29.03-.51.05-.63.05-1.24,0-1.86-.44-1.86-1.32,0-.52.04-1.32.12-2.39.08-1.07.12-1.87.12-2.39,0-.68-.04-1.73-.12-3.12-.08-1.4-.12-2.44-.12-3.12s1.04-1.01,3.12-1.07c1.17-.03,1.81-.36,1.9-.98.2-1.24.26-3.19.2-5.86-.13-4.2-.2-6.2-.2-6.01,0-3.78.36-5.66,1.07-5.66.88,0,2.13.2,3.76.59,1.86.42,3.14.67,3.86.73,1.66.23,4.17.54,7.52.93.81.07,1.22.34,1.22.83,0,1.3-.11,3.27-.32,5.91-.21,2.64-.32,4.62-.32,5.96,0,1.6.47,2.39,1.42,2.39,1.14,0,2.86-.05,5.18-.15,2.31-.1,4.05-.15,5.22-.15.72,0,1.07.24,1.07.73,0,.75-.08,1.87-.24,3.37-.16,1.5-.24,2.62-.24,3.37s.02,1.92.05,3.42c.03,1.5.05,2.64.05,3.42,0,.68-.47,1.03-1.42,1.03-.65,0-1.74-.02-3.27-.07-1.53-.05-2.62-.07-3.27-.07h-3.66c-.49,0-.73.72-.73,2.15v3.47c.03,1.56.05,2.72.05,3.47,0,2.73.31,4.62.93,5.66.88,1.4,2.6,2.1,5.18,2.1.81,0,1.98-.19,3.49-.56,1.51-.37,2.58-.56,3.2-.56.68,0,1.03.36,1.03,1.07Z"/><path class="cls-1" d="M1093.95,2196.21c0,6.02-2.49,10.66-7.47,13.92-4.23,2.8-9.52,4.2-15.87,4.2-4.88,0-8.9-.34-12.06-1.03-6.87-1.43-10.3-2.7-10.3-3.81,0-.2.06-.49.2-.88.46-1.2,1.12-3.01,2-5.42.26-1.2.72-2.99,1.37-5.37.29-.81.78-1.22,1.46-1.22-.1,0,1.36.54,4.37,1.61,3.01,1.07,5.48,1.61,7.4,1.61,6.38,0,9.57-2.13,9.57-6.4,0-3.42-3.03-5.13-9.08-5.13-.81,0-1.89.03-3.22.1-1.34.07-2.21.1-2.64.1-1.99,0-3.08-.02-3.27-.05-1.43-.16-2.15-.72-2.15-1.66,0-4.98.2-8.11.59-9.38.26-.81.78-1.22,1.56-1.22,1.11,0,2.74.14,4.91.42,2.16.28,3.78.42,4.86.42,1.4,0,2.56-.46,3.49-1.39s1.39-2.11,1.39-3.54c0-3.84-2.8-5.76-8.4-5.76-2.34,0-5.52.63-9.52,1.9-.16.03-.31.05-.44.05-.42,0-.78-.46-1.07-1.37-.07-1.37-.16-2.93-.29-4.69-.03-.39-.13-1.17-.29-2.34-.13-.94-.2-1.71-.2-2.29,0-1.73,2.67-3.06,8.01-4,3.68-.65,7.24-.98,10.69-.98,5.53,0,10.38,1.22,14.55,3.66,5.05,2.93,7.57,6.98,7.57,12.16,0,5.96-2.7,10.48-8.11,13.57,3.19,1.07,5.72,2.88,7.59,5.42,1.87,2.54,2.81,5.47,2.81,8.79Z"/><path class="cls-1" d="M1156.11,2183.41c0,8.4-2.72,15.61-8.15,21.63-5.63,6.25-12.61,9.38-20.95,9.38s-15.3-3.12-20.9-9.38c-5.47-6.02-8.2-13.23-8.2-21.63s2.73-15.62,8.2-21.58c5.6-6.15,12.56-9.23,20.9-9.23s15.3,3.08,20.9,9.23c5.47,5.99,8.2,13.18,8.2,21.58ZM1138,2183.41c0-3.35-.98-6.27-2.93-8.74-2.08-2.64-4.77-3.96-8.06-3.96s-6.05,1.3-8.11,3.91c-1.92,2.41-2.88,5.34-2.88,8.79s.96,6.33,2.88,8.84c2.08,2.7,4.79,4.05,8.11,4.05s5.86-1.38,8.01-4.15c1.99-2.54,2.98-5.45,2.98-8.74Z"/><path class="cls-1" d="M1251.72,2178.29c0,9.57-3.08,17.87-9.23,24.9-5.44,6.28-13.07,9.59-22.9,9.91-1.89.06-7.08.1-15.58.1-1.6,0-4-.05-7.2-.15-3.21-.1-5.61-.15-7.2-.15-.94,0-1.42-.37-1.42-1.12,0-3.58.14-8.96.42-16.14.28-7.18.42-12.56.42-16.14s-.14-9.35-.42-16.82c-.28-7.47-.42-13.06-.42-16.77,0-.68.47-1.09,1.42-1.22,2.31-.26,6.1-.39,11.38-.39,10.03,0,16.52.15,19.48.44,7.71.78,13.75,2.73,18.12,5.86,4.1,2.93,7.34,7.03,9.72,12.3,2.28,4.98,3.42,10.11,3.42,15.38ZM1233.02,2178.29c0-5.5-1.64-9.99-4.93-13.48-3.32-3.61-7.71-5.42-13.18-5.42-5.01,0-7.52.67-7.52,2,0,1.92-.03,4.81-.1,8.67-.07,3.86-.1,6.75-.1,8.67s.03,4.73.1,8.52c.06,3.79.1,6.65.1,8.57,0,1.4,2.6,2.1,7.81,2.1,5.63,0,10.06-1.87,13.28-5.62,3.03-3.55,4.54-8.22,4.54-14.01Z"/><path class="cls-1" d="M1308.02,2188.49c0,2.51.15,6.23.44,11.18.29,4.95.44,8.66.44,11.13,0,1.3-.57,2-1.71,2.1-4.04.29-8.66.44-13.87.44-.62,0-1.03-.94-1.25-2.81-.21-1.87-.46-2.82-.76-2.86-.26.13-.6.41-1.03.83-3.65,3.68-7.55,5.52-11.72,5.52-6.35,0-11.6-2.51-15.77-7.52-3.94-4.69-5.91-10.29-5.91-16.8,0-7.52,2.03-13.57,6.1-18.16,4.23-4.75,10.03-7.13,17.38-7.13,5.11,0,9.15,1.79,12.11,5.37.13.16.24.24.34.24.29,0,.63-.79,1-2.37.37-1.58.82-2.37,1.34-2.37,1.2,0,3.5.34,6.88,1.03,3.22.65,5.53,1.2,6.93,1.66.49.2.73.46.73.78,0,.13-.05.47-.15,1.03-1.04,5.89-1.56,12.13-1.56,18.7ZM1292.29,2188.79c0-2.77-.87-5.05-2.61-6.86-1.74-1.81-4.01-2.71-6.81-2.71s-5.06.9-6.79,2.69c-1.73,1.79-2.59,4.09-2.59,6.88,0,2.64.91,4.9,2.73,6.79,1.82,1.89,4.04,2.83,6.64,2.83,2.77,0,5.03-.9,6.79-2.71s2.64-4.11,2.64-6.91Z"/><path class="cls-1" d="M1365.68,2178.09c0,6.32-.2,10.16-.59,11.52-.49,1.63-4.05,7.52-10.69,17.68-1.04,1.6-3.73,5.29-8.06,11.08-4.79,6.38-7.5,9.75-8.15,10.11-.78.49-5.78.73-14.99.73-1.4,0-2.34-.16-2.83-.49-.42-1.33-.96-2.91-1.61-4.74-.52-1.14-1.04-2.29-1.56-3.47-.75-1.69-1.12-2.82-1.12-3.37,0-.62.28-.93.83-.93,9.05,0,13.57-2.07,13.57-6.2,0-.36-2.21-3.6-6.64-9.72-4.59-6.28-7.11-10.25-7.57-11.91-.26-.94-.39-4.31-.39-10.11,0-1.17.03-2.94.1-5.3.06-2.36.1-4.13.1-5.3,0-.85.54-1.27,1.61-1.27,1.66,0,4.17.05,7.54.15s5.88.15,7.54.15c.68,0,1.03.5,1.03,1.51,0,.91-.05,2.29-.15,4.13-.1,1.84-.15,3.21-.15,4.13,0,4.1.06,6.88.2,8.35.1,1.14,1.07,3.26,2.93,6.35,1.95,3.22,3.37,4.83,4.25,4.83.75,0,2.02-1.59,3.81-4.79,1.66-3.03,2.56-5.06,2.69-6.1.32-2.86.49-5.97.49-9.33,0-.88-.08-2.21-.24-4-.16-1.79-.24-3.14-.24-4.05,0-.62.34-.93,1.03-.93,1.66,0,4.14-.06,7.45-.2,3.3-.13,5.79-.2,7.45-.2.85,0,1.42.42,1.71,1.27.46,1.5.68,4.96.68,10.4Z"/><path class="cls-1" d="M1400.11,2173.4c0,.33-.24.77-.73,1.32-.91-.23-1.82-.34-2.73-.34-1.92,0-3.53.42-4.83,1.27-1.56.98-2.34,2.36-2.34,4.15,0,1.14.83,2.59,2.49,4.35,2.51,2.64,4.05,4.41,4.64,5.32,1.66,2.47,2.49,5.13,2.49,7.96,0,1.66-.33,3.42-.98,5.27-.75,2.05-1.69,3.55-2.83,4.49-2.41,2.08-5.22,3.84-8.45,5.27-3.48,1.5-6.69,2.25-9.62,2.25-.65,0-2.11-1.77-4.37-5.3-2.26-3.53-3.39-5.69-3.39-6.47,0-.29.18-.47.54-.54,2.28-.42,4.57-.85,6.88-1.27,2.86-.91,4.3-2.41,4.3-4.49,0-1.43-.83-3.09-2.49-4.98-2.96-3.29-4.51-5.03-4.64-5.22-1.66-2.34-2.49-4.82-2.49-7.42,0-4.88,2.47-9.03,7.42-12.45,4.43-3.03,9.16-4.54,14.21-4.54.52,0,1.81,1.75,3.86,5.25,2.05,3.5,3.08,5.54,3.08,6.13Z"/><path class="cls-1" d="M254.85,1438.78c0,.46-.46,1.47-1.39,3.05-.93,1.58-1.59,2.37-1.98,2.37-.52,0-10.51-5.13-29.98-15.38-1.53-.85-6.09-2.78-13.67-5.81-3.61-1.53-9.08-3.69-16.41-6.49-1.04-.36-1.56-.68-1.56-.98,0-.59.43-1.51,1.29-2.78.86-1.27,1.57-1.9,2.12-1.9.1,0,4.72,2.25,13.87,6.74,9.6,4.75,14.83,7.32,15.67,7.71,9.77,4.43,19.89,8.56,30.37,12.4,1.11.39,1.66.75,1.66,1.07ZM209.88,1429.41c5.27,0,9.83,1.68,13.67,5.03,4.04,3.52,6.05,7.88,6.05,13.09s-2,9.54-6.01,13.09c-3.84,3.39-8.41,5.08-13.72,5.08s-9.85-1.69-13.72-5.08c-4.04-3.55-6.05-7.91-6.05-13.09s2.03-9.54,6.1-13.09c3.87-3.35,8.43-5.03,13.67-5.03ZM209.88,1441.61c-1.92,0-3.61.49-5.08,1.46-1.66,1.11-2.49,2.59-2.49,4.44s.83,3.3,2.49,4.44c1.46,1.01,3.16,1.51,5.08,1.51s3.53-.52,5.03-1.56c1.66-1.17,2.49-2.64,2.49-4.39,0-1.86-.81-3.34-2.44-4.44-1.46-.98-3.16-1.46-5.08-1.46ZM234.2,1388.39c5.27,0,9.83,1.69,13.67,5.08,4.04,3.55,6.05,7.93,6.05,13.13s-2.02,9.52-6.05,13.04c-3.87,3.39-8.43,5.08-13.67,5.08s-9.85-1.69-13.72-5.08c-4.04-3.48-6.05-7.83-6.05-13.04s2.02-9.62,6.05-13.13c3.84-3.39,8.42-5.08,13.72-5.08ZM234.2,1400.69c-1.95,0-3.66.49-5.13,1.46-1.66,1.07-2.49,2.56-2.49,4.44s.85,3.34,2.54,4.44c1.46.98,3.16,1.46,5.08,1.46s3.48-.52,4.98-1.56c1.69-1.14,2.54-2.59,2.54-4.35,0-1.86-.81-3.34-2.44-4.44-1.43-.98-3.12-1.46-5.08-1.46Z"/><path class="cls-1" d="M216.62,1337.56c3.84,0,9.62-.1,17.33-.29s13.49-.29,17.33-.29c.65,0,1.06.15,1.22.44.03.07.1.49.2,1.27.26,2.12.39,4.95.39,8.5,0,4.75-.13,7.78-.39,9.08-.2.94-.7,1.42-1.51,1.42.52,0-2.34-.15-8.59-.44-13.18-.59-21.84-.88-25.98-.88-3.48,0-8.71.11-15.67.34-6.97.23-12.19.34-15.67.34-.72,0-1.07-.37-1.07-1.12,0-1.01.05-2.53.15-4.57.1-2.03.15-3.56.15-4.57s-.05-2.5-.15-4.47c-.1-1.97-.15-3.46-.15-4.47,0-.94.36-1.42,1.07-1.42,3.48,0,8.71.19,15.67.56,6.97.37,12.19.56,15.67.56Z"/><path class="cls-1" d="M251.29,1279.41c.88,0,1.38.46,1.51,1.37.13.91.2,3.29.2,7.13,0,4.1-.1,6.64-.29,7.62s-.86,1.46-2,1.46c-1.53,0-3.84-.05-6.93-.15-3.09-.1-5.42-.15-6.98-.15-1.2,0-3,.03-5.4.1-2.39.07-4.19.1-5.4.1-4.46,0-6.69,1.94-6.69,5.81,0,1.27.55,2.75,1.66,4.44,1.24,1.82,2.46,2.73,3.66,2.73h26.37c1.07,0,1.68.5,1.81,1.51.13,1.14.2,3.47.2,6.98,0,3.81-.1,6.28-.29,7.42-.16,1.01-.7,1.51-1.61,1.51-2.54,0-6.36-.02-11.47-.05-5.11-.03-8.95-.05-11.52-.05-8.11,0-14.47.63-19.09,1.9-.29.07-.54.1-.73.1-.52,0-.88-.24-1.07-.73-.23-2.05-.59-4.79-1.07-8.2-1.01-5.18-1.51-8.09-1.51-8.74,0-.36,1.1-.63,3.3-.83s3.3-.47,3.3-.83c0,.36-1.13-1.39-3.39-5.25-2.26-3.86-3.39-7.23-3.39-10.13,0-4.13.98-7.58,2.93-10.35,2.25-3.09,5.37-4.64,9.38-4.64h15.58c2.12,0,5.28-.02,9.5-.05,4.22-.03,7.38-.05,9.5-.05Z"/><path class="cls-1" d="M238.4,1238.59c.98,0,2.46.12,4.44.37,1.99.24,3.44.37,4.37.37s1.52.1,1.78.29c.26.2.63.73,1.12,1.61,2.31,4.2,3.47,8.85,3.47,13.96,0,9.41-3.6,14.11-10.79,14.11-2.15,0-5.38-.08-9.69-.24-4.31-.16-7.54-.24-9.69-.24-1.43,0-2.15.83-2.15,2.49v.63c.03.29.05.5.05.63,0,1.24-.44,1.86-1.32,1.86-.52,0-1.32-.04-2.39-.12-1.07-.08-1.87-.12-2.39-.12-.68,0-1.73.04-3.12.12-1.4.08-2.44.12-3.12.12s-1.01-1.04-1.07-3.12c-.03-1.17-.36-1.81-.98-1.9-1.24-.2-3.19-.26-5.86-.2-4.2.13-6.2.2-6.01.2-3.78,0-5.66-.36-5.66-1.07,0-.88.2-2.13.59-3.76.42-1.86.67-3.14.73-3.86.23-1.66.54-4.17.93-7.52.07-.81.34-1.22.83-1.22,1.3,0,3.27.11,5.91.32,2.64.21,4.62.32,5.96.32,1.6,0,2.39-.47,2.39-1.42,0-1.14-.05-2.86-.15-5.18-.1-2.31-.15-4.05-.15-5.22,0-.72.24-1.07.73-1.07.75,0,1.87.08,3.37.24,1.5.16,2.62.24,3.37.24s1.92-.02,3.42-.05c1.5-.03,2.64-.05,3.42-.05.68,0,1.03.47,1.03,1.42,0,.65-.02,1.74-.07,3.27-.05,1.53-.07,2.62-.07,3.27v3.66c0,.49.72.73,2.15.73h3.47c1.56-.03,2.72-.05,3.47-.05,2.73,0,4.62-.31,5.66-.93,1.4-.88,2.1-2.6,2.1-5.18,0-.81-.19-1.98-.56-3.49-.37-1.51-.56-2.58-.56-3.2,0-.68.36-1.03,1.07-1.03Z"/><path class="cls-1" d="M226.19,1188.73c3.29,0,5.16,1.06,5.62,3.17.07.36.42,3.73,1.07,10.11.42,3.84.93,9.57,1.51,17.19,2.12-.46,3.73-1.84,4.83-4.15.91-1.89,1.37-4.04,1.37-6.45,0-2.9-.78-5.81-2.34-8.74-.78-1.24-1.56-2.47-2.34-3.71.33-.68,1.99-1.83,4.98-3.44,3-1.61,4.9-2.42,5.71-2.42.23,0,.6.24,1.12.73,4.26,3.97,6.4,10.14,6.4,18.51,0,7.75-2.26,14-6.79,18.75-4.59,4.88-10.73,7.32-18.41,7.32s-13.62-2.18-18.41-6.54c-4.95-4.49-7.42-10.45-7.42-17.87,0-6.25,2.28-11.56,6.84-15.92,4.56-4.36,9.98-6.54,16.26-6.54ZM223.21,1205.82c-2.02,0-3.79.72-5.32,2.15-1.53,1.43-2.29,3.14-2.29,5.13s.86,3.74,2.59,5.08c1.6,1.24,3.47,1.86,5.62,1.86.88,0,1.32-.46,1.32-1.37,0-2.41-.37-6.15-1.12-11.23-.16-1.07-.42-1.61-.78-1.61Z"/><path class="cls-1" d="M222.29,1150.99c1.27,0,1.9.7,1.9,2.1,0,.62-.04,1.52-.12,2.71-.08,1.19-.12,2.08-.12,2.66,0,2.7.42,4.54,1.27,5.52.85.98,2.56,1.46,5.13,1.46,1.4,0,3.52-.02,6.37-.07,2.85-.05,4.97-.07,6.37-.07.94,0,2.35-.06,4.22-.2,1.87-.13,3.26-.2,4.17-.2.78,0,1.22.54,1.32,1.61.13,1.56.2,3.96.2,7.18s-.1,5.57-.29,7.42c-.13,1.07-.67,1.61-1.61,1.61-2.6,0-6.5-.02-11.69-.05-5.19-.03-9.09-.05-11.69-.05-7.65,0-13.95.7-18.9,2.1-.29.07-.54.1-.73.1-.49,0-.81-.24-.98-.73-.2-1.79-.55-4.41-1.07-7.86-1.01-5.14-1.51-7.8-1.51-7.96,0-.59,1.03-.96,3.08-1.12,2.05-.16,3.08-.46,3.08-.88,0,.46-.85-.88-2.56-4s-2.56-6.14-2.56-9.03c0-1.82.39-2.73,1.17-2.73.94,0,2.28.1,4,.29,1.86.2,3.19.31,4,.34.94,0,2.2-.02,3.76-.05,1.92-.06,3.19-.1,3.81-.1Z"/><path class="cls-1" d="M228.29,1096.2c2.51,0,6.23-.15,11.18-.44,4.95-.29,8.66-.44,11.13-.44,1.3,0,2,.57,2.1,1.71.29,4.04.44,8.66.44,13.87,0,.62-.94,1.03-2.81,1.25-1.87.21-2.82.46-2.86.76.13.26.41.6.83,1.03,3.68,3.65,5.52,7.55,5.52,11.72,0,6.35-2.51,11.6-7.52,15.77-4.69,3.94-10.29,5.91-16.8,5.91-7.52,0-13.57-2.03-18.16-6.1-4.75-4.23-7.13-10.03-7.13-17.38,0-5.11,1.79-9.15,5.37-12.11.16-.13.24-.24.24-.34,0-.29-.79-.63-2.37-1-1.58-.37-2.37-.82-2.37-1.34,0-1.2.34-3.5,1.03-6.88.65-3.22,1.2-5.53,1.66-6.93.2-.49.46-.73.78-.73.13,0,.47.05,1.03.15,5.89,1.04,12.13,1.56,18.7,1.56ZM228.58,1111.93c-2.77,0-5.05.87-6.86,2.61-1.81,1.74-2.71,4.01-2.71,6.81s.9,5.06,2.69,6.79c1.79,1.73,4.09,2.59,6.88,2.59,2.64,0,4.9-.91,6.79-2.73,1.89-1.82,2.83-4.04,2.83-6.64,0-2.77-.9-5.03-2.71-6.79s-4.11-2.64-6.91-2.64Z"/><path class="cls-1" d="M220.58,1054.16s-.26,1.02-.78,2.95c-.52,1.94-.78,3.51-.78,4.71,0,2.9.87,5.21,2.61,6.93,1.74,1.73,4.06,2.59,6.96,2.59s5.35-.94,7.06-2.83c1.71-1.89,2.56-4.35,2.56-7.37,0-1.43-.37-3.04-1.1-4.83-.73-1.79-1.1-2.64-1.1-2.54,0-.55,2.07-1.27,6.2-2.15,3.78-.75,6.28-1.12,7.52-1.12s2.29,2.02,3.17,6.05c.68,3.12,1.03,5.65,1.03,7.57,0,7.16-2.41,13.07-7.23,17.72-4.82,4.66-10.82,6.98-18.02,6.98s-13.13-2.34-17.99-7.01c-4.87-4.67-7.3-10.57-7.3-17.7,0-4.85,1.04-9.11,3.12-12.79.46-.85.9-1.27,1.32-1.27s2.34.49,5.76,1.46c3.29.91,5.27,1.51,5.96,1.78.68.28,1.03.56,1.03.85Z"/><path class="cls-1" d="M238.4,1012.22c.98,0,2.46.12,4.44.37,1.99.24,3.44.37,4.37.37s1.52.1,1.78.29c.26.2.63.73,1.12,1.61,2.31,4.2,3.47,8.85,3.47,13.96,0,9.41-3.6,14.11-10.79,14.11-2.15,0-5.38-.08-9.69-.24-4.31-.16-7.54-.24-9.69-.24-1.43,0-2.15.83-2.15,2.49v.63c.03.29.05.5.05.63,0,1.24-.44,1.86-1.32,1.86-.52,0-1.32-.04-2.39-.12-1.07-.08-1.87-.12-2.39-.12-.68,0-1.73.04-3.12.12-1.4.08-2.44.12-3.12.12s-1.01-1.04-1.07-3.12c-.03-1.17-.36-1.81-.98-1.9-1.24-.2-3.19-.26-5.86-.2-4.2.13-6.2.2-6.01.2-3.78,0-5.66-.36-5.66-1.07,0-.88.2-2.13.59-3.76.42-1.86.67-3.14.73-3.86.23-1.66.54-4.17.93-7.52.07-.81.34-1.22.83-1.22,1.3,0,3.27.11,5.91.32,2.64.21,4.62.32,5.96.32,1.6,0,2.39-.47,2.39-1.42,0-1.14-.05-2.86-.15-5.18-.1-2.31-.15-4.05-.15-5.22,0-.72.24-1.07.73-1.07.75,0,1.87.08,3.37.24,1.5.16,2.62.24,3.37.24s1.92-.02,3.42-.05c1.5-.03,2.64-.05,3.42-.05.68,0,1.03.47,1.03,1.42,0,.65-.02,1.74-.07,3.27-.05,1.53-.07,2.62-.07,3.27v3.66c0,.49.72.73,2.15.73h3.47c1.56-.03,2.72-.05,3.47-.05,2.73,0,4.62-.31,5.66-.93,1.4-.88,2.1-2.6,2.1-5.18,0-.81-.19-1.98-.56-3.49-.37-1.51-.56-2.58-.56-3.2,0-.68.36-1.03,1.07-1.03Z"/><path class="cls-1" d="M194.01,987.76c5.66,0,8.5,3.19,8.5,9.57,0,2.73-.72,5-2.15,6.79-1.56,1.95-3.68,2.93-6.35,2.93s-4.62-1.01-6.25-3.03c-1.5-1.86-2.25-4.08-2.25-6.69s.77-4.74,2.29-6.59c1.63-1.99,3.69-2.98,6.2-2.98ZM230.29,989.02c2.38,0,5.92-.05,10.62-.15,4.7-.1,8.23-.15,10.57-.15.68,0,1.09.41,1.22,1.22.2,1.11.29,3.6.29,7.47s-.1,6.41-.29,7.52c-.13.72-.34,1.16-.63,1.32-.13.07-.62.1-1.46.1-2.25,0-5.62-.05-10.13-.15-4.51-.1-7.9-.15-10.18-.15-9.24,0-16.6.36-22.07,1.07-.52.07-.86.1-1.03.1-.65,0-.98-.44-.98-1.32s.1-2.3.29-4.17c.2-1.87.29-3.28.29-4.22s-.08-2.36-.24-4.25c-.16-1.89-.24-3.3-.24-4.25,0-.78.33-1.17.98-1.17.13,0,.44.03.93.1,6.35.72,13.7,1.07,22.07,1.07Z"/><path class="cls-1" d="M228.68,932.63c7.42,0,13.44,2.27,18.07,6.81,4.62,4.54,6.93,10.51,6.93,17.9s-2.28,13.05-6.84,17.68c-4.56,4.62-10.42,6.93-17.58,6.93-7.55,0-13.68-2.21-18.38-6.64-4.7-4.43-7.06-10.42-7.06-17.97s2.3-13.31,6.91-17.87c4.61-4.56,10.59-6.84,17.94-6.84ZM228.68,948.64c-2.57,0-4.84.8-6.81,2.39-1.97,1.6-2.95,3.66-2.95,6.2s1.01,4.69,3.03,6.35c1.89,1.56,4.13,2.34,6.74,2.34s4.9-.78,6.79-2.34c2.02-1.66,3.03-3.78,3.03-6.35s-1.01-4.64-3.03-6.3c-1.89-1.53-4.15-2.29-6.79-2.29Z"/><path class="cls-1" d="M251.29,878.19c.88,0,1.38.46,1.51,1.37.13.91.2,3.29.2,7.13,0,4.1-.1,6.64-.29,7.62s-.86,1.46-2,1.46c-1.53,0-3.84-.05-6.93-.15-3.09-.1-5.42-.15-6.98-.15-1.2,0-3,.03-5.4.1-2.39.07-4.19.1-5.4.1-4.46,0-6.69,1.94-6.69,5.81,0,1.27.55,2.75,1.66,4.44,1.24,1.82,2.46,2.73,3.66,2.73h26.37c1.07,0,1.68.5,1.81,1.51.13,1.14.2,3.47.2,6.98,0,3.81-.1,6.28-.29,7.42-.16,1.01-.7,1.51-1.61,1.51-2.54,0-6.36-.02-11.47-.05-5.11-.03-8.95-.05-11.52-.05-8.11,0-14.47.63-19.09,1.9-.29.07-.54.1-.73.1-.52,0-.88-.24-1.07-.73-.23-2.05-.59-4.79-1.07-8.2-1.01-5.18-1.51-8.09-1.51-8.74,0-.36,1.1-.63,3.3-.83s3.3-.47,3.3-.83c0,.36-1.13-1.39-3.39-5.25-2.26-3.86-3.39-7.23-3.39-10.13,0-4.13.98-7.58,2.93-10.35,2.25-3.09,5.37-4.64,9.38-4.64h15.58c2.12,0,5.28-.02,9.5-.05,4.22-.03,7.38-.05,9.5-.05Z"/><polyline class="cls-4" points="333.5 2066.08 664.94 1507.02 777.88 1687.73 952.94 1173.85 1048.94 1371.49 1224 953.61 1424.43 784.2 1670.12 501.85 1873.41 671.26"/></g><g id="Comments"><rect class="cls-2" x="2124.66" y="648.67" width="1392.04" height="1033.41" rx="90" ry="90"/><g id="_-Product-Icons"><g id="ic_fluent_comment_24_regular"><path id="_-Color" class="cls-3" d="M2249.82,885.44c-19.78,0-35.81-16.03-35.81-35.81v-93.67c0-19.78,16.03-35.81,35.81-35.81h148.76c19.78,0,35.81,16.03,35.81,35.81v93.67c0,19.78-16.03,35.81-35.81,35.81h-63.23l-55.25,41.33c-6.09,4.56-14.72,3.31-19.28-2.78-1.78-2.38-2.74-5.28-2.74-8.25v-30.3h-8.26ZM2329.86,868.91h68.72c10.65,0,19.28-8.63,19.28-19.28v-93.67c0-10.65-8.63-19.28-19.28-19.28h-148.76c-10.65,0-19.28,8.63-19.28,19.28v93.67c0,10.65,8.63,19.28,19.28,19.28h24.78v8.26s.01,33.07.01,33.07l55.25-41.33Z"/></g></g><rect class="cls-3" x="2488.94" y="756.66" width="943.06" height="110.91" rx="55.46" ry="55.46"/><rect class="cls-3" x="2177.65" y="962.08" width="1272" height="68.48" rx="34.24" ry="34.24"/><rect class="cls-3" x="2177.65" y="1063.12" width="1210.59" height="68.48" rx="33.4" ry="33.4"/><rect class="cls-3" x="2177.65" y="1167.84" width="1225.41" height="68.48" rx="33.61" ry="33.61"/><rect class="cls-3" x="2177.65" y="1272.57" width="837.88" height="68.48" rx="27.79" ry="27.79"/><rect class="cls-5" x="2177.65" y="1427.97" width="1272" height="197.65" rx="98.82" ry="98.82"/><line id="Cursor" class="cls-6" x1="2269.31" y1="1471.01" x2="2269.31" y2="1582.57"/></g></svg>