<?xml version="1.0" encoding="UTF-8"?><svg id="Dynamic_and_Customizable" xmlns="http://www.w3.org/2000/svg" viewBox="0 0 3646.59 2393.61"><defs><style>.cls-1,.cls-2,.cls-3,.cls-4{stroke-width:0px;}.cls-2{fill:#fff;}.cls-5{fill:none;stroke:#000;stroke-miterlimit:10;stroke-width:50px;}.cls-3{fill:#bb8aff;}.cls-4{fill:#555;}</style></defs><g id="Ad"><rect class="cls-3" x="496.2" y="92.17" width="1710.39" height="2155.76" rx="137.77" ry="137.77"/><rect class="cls-4" x="676.05" y="232.23" width="1300.67" height="1147.53" rx="122.46" ry="122.46"/><rect class="cls-4" x="716.24" y="1629.38" width="1270.56" height="405.42" rx="71.94" ry="71.94"/></g><path class="cls-1" d="M1848.96,1581.99c75.81,0,137.48,61.67,137.48,137.48v12.73s.17,0,.17,0l.2,253.52c0,193.78-156.78,351.38-349.51,351.38h-244.41c-209.52,0-325.26-222.77-330.09-232.24l-170.79-345.62c-33.68-68.18-5.52-151.92,62.81-186.65,37.16-18.89,76.59-20.72,114.05-5.33,33.59,13.8,62.52,40.59,86.58,71.31v-404.86c0-75.81,61.69-137.49,137.48-137.48,75.8-.01,137.49,61.66,137.49,137.47v165.07c15.3-5.95,31.78-9.25,48.88-9.26,63.49,0,118.76,43.77,135.4,101.49,15.77-6.32,32.95-9.83,50.97-9.84,66.3,0,121.8,47.18,134.66,109.74,15.13-5.75,31.52-8.91,48.64-8.91ZM1894.79,1719.47c0-25.27-20.56-45.83-45.83-45.83-25.27,0-45.83,20.56-45.83,45.83v100.83s-91.66,0-91.66,0v-100.81s0-100.83,0-100.83c0-25.27-20.56-45.83-45.83-45.83-25.26,0-45.83,20.56-45.83,45.83l.02,158.87h-91.66s0-158.87,0-158.87v-91.65c0-24.42-22.85-45.82-48.89-45.83-25.15,0-48.06,23.3-48.05,48.89v232.18s-.84,0-.84,0h-90.82s-.82,0-.82,0v-528.55c-.01-25.27-20.57-45.83-45.83-45.82-25.27,0-45.83,20.56-45.83,45.83v613.61s-78.73,27.86-78.73,27.86l-14.71-44.35c-19.41-58.11-69.09-158.07-119.68-178.82-12.69-5.2-24.29-4.51-37.63,2.27-24.2,12.3-33.94,40.58-22.18,64.36l170.35,344.74c3.4,6.47,97.43,182.07,248.37,182.06h244.4c142.18.01,257.86-116.49,257.86-259.67l-.15-200.73h-.21s0-65.55,0-65.55Z"/><path class="cls-2" d="M1848.97,1673.64c25.27,0,45.83,20.56,45.83,45.83v65.55s.21,0,.21,0l.15,200.73c0,143.18-115.68,259.69-257.86,259.68h-244.4c-150.94,0-244.97-175.6-248.37-182.07l-170.35-344.74c-11.76-23.78-2.02-52.06,22.18-64.36,13.34-6.78,24.93-7.46,37.63-2.27,50.59,20.75,100.27,120.71,119.68,178.82l14.71,44.35,78.73-27.86v-613.61c0-25.27,20.55-45.83,45.83-45.83,25.26,0,45.82,20.55,45.82,45.82v528.55s.84,0,.84,0h90.82s.83-.01.83-.01v-232.18c0-25.59,22.91-48.89,48.06-48.89,26.04.01,48.88,21.42,48.88,45.83v91.65s0,158.87,0,158.87h91.66s-.02-158.87-.02-158.87c0-25.27,20.57-45.82,45.83-45.83,25.27,0,45.83,20.56,45.83,45.83v100.83s0,100.81,0,100.81h91.66s0-100.82,0-100.82c0-25.27,20.56-45.83,45.83-45.83Z"/><line id="Wire" class="cls-5" x1="2206.59" y1="1156.91" x2="3646.59" y2="1156.91"/><path id="Gear" class="cls-1" d="M2929.7,719.55h-15.2c-12.4,0-22.8-10.7-22.8-23.4,0-6.4,2.7-12.2,7.5-16.5l9.8-9.6c9.7-9.6,9.7-25.3,0-34.9l-22.3-22.1c-4.4-4.4-10.9-7-17.5-7s-13,2.6-17.5,7l-9.4,9.4c-4.5,5-10.5,7.7-17,7.7-12.8,0-23.5-10.4-23.5-22.7v-15.3c0-13.5-10.9-25.1-24.5-25.1h-30.4c-13.6,0-24.4,11.5-24.4,25.1v15.2c0,12.3-10.7,22.7-23.5,22.7-6.4,0-12.3-2.7-16.6-7.4l-9.7-9.6c-4.4-4.5-10.9-7-17.5-7s-13,2.6-17.5,7l-22.5,22c-9.6,9.6-9.6,25.3,0,34.8l9.4,9.4c5,4.5,7.8,10.5,7.8,16.9,0,12.8-10.4,23.4-22.8,23.4h-15.2c-13.7,0-25.2,10.7-25.2,24.3v30.4c0,13.5,11.5,24.3,25.2,24.3h15.2c12.4,0,22.8,10.7,22.8,23.4,0,6.4-2.8,12.4-7.8,16.9l-9.4,9.3c-9.6,9.6-9.6,25.3,0,34.8l22.3,22.2c4.4,4.5,10.9,7,17.5,7s13-2.6,17.5-7l9.7-9.6c4.2-4.7,10.2-7.4,16.6-7.4,12.8,0,23.5,10.4,23.5,22.7v15.2c0,13.5,10.8,25.1,24.5,25.1h30.4c13.6,0,24.4-11.5,24.4-25.1v-15.2c0-12.3,10.7-22.7,23.5-22.7,6.4,0,12.4,2.8,17,7.7l9.4,9.4c4.5,4.4,10.9,7,17.5,7s13-2.6,17.5-7l22.3-22.2c9.6-9.6,9.6-25.3,0-34.9l-9.8-9.6c-4.8-4.3-7.5-10.2-7.5-16.5,0-12.8,10.4-23.4,22.8-23.4h15.2c13.6,0,23.3-10.7,23.3-24.3v-30.5c.2-13.6-9.5-24.3-23.1-24.3ZM2842,759.05h0c0,44.1-35.7,80-80,80s-80-35.9-80-80h0c0-44.1,35.7-80,80-80s80,35.9,80,80h0Z"/><path id="Gear-2" class="cls-1" d="M3202.5,527.5h-15.2c-12.4,0-22.8-10.7-22.8-23.4,0-6.4,2.7-12.2,7.5-16.5l9.8-9.6c9.7-9.6,9.7-25.3,0-34.9l-22.3-22.1c-4.4-4.4-10.9-7-17.5-7s-13,2.6-17.5,7l-9.4,9.4c-4.5,5-10.5,7.7-17,7.7-12.8,0-23.5-10.4-23.5-22.7v-15.3c0-13.5-10.9-25.1-24.5-25.1h-30.4c-13.6,0-24.4,11.5-24.4,25.1v15.2c0,12.3-10.7,22.7-23.5,22.7-6.4,0-12.3-2.7-16.6-7.4l-9.7-9.6c-4.4-4.5-10.9-7-17.5-7s-13,2.6-17.5,7l-22.5,22c-9.6,9.6-9.6,25.3,0,34.8l9.4,9.4c5,4.5,7.8,10.5,7.8,16.9,0,12.8-10.4,23.4-22.8,23.4h-15.2c-13.7,0-25.2,10.7-25.2,24.3v30.4c0,13.5,11.5,24.3,25.2,24.3h15.2c12.4,0,22.8,10.7,22.8,23.4,0,6.4-2.8,12.4-7.8,16.9l-9.4,9.3c-9.6,9.6-9.6,25.3,0,34.8l22.3,22.2c4.4,4.5,10.9,7,17.5,7s13-2.6,17.5-7l9.7-9.6c4.2-4.7,10.2-7.4,16.6-7.4,12.8,0,23.5,10.4,23.5,22.7v15.2c0,13.5,10.8,25.1,24.5,25.1h30.4c13.6,0,24.4-11.5,24.4-25.1v-15.2c0-12.3,10.7-22.7,23.5-22.7,6.4,0,12.4,2.8,17,7.7l9.4,9.4c4.5,4.4,10.9,7,17.5,7s13-2.6,17.5-7l22.3-22.2c9.6-9.6,9.6-25.3,0-34.9l-9.8-9.6c-4.8-4.3-7.5-10.2-7.5-16.5,0-12.8,10.4-23.4,22.8-23.4h15.2c13.6,0,23.3-10.7,23.3-24.3v-30.5c.2-13.6-9.5-24.3-23.1-24.3ZM3114.8,567h0c0,44.1-35.7,80-80,80s-80-35.9-80-80h0c0-44.1,35.7-80,80-80s80,35.9,80,80h0Z"/><path id="Link" class="cls-1" d="M3212.92,1439.19c-61.86-61.86-162.01-50.08-247.43-53.02,5.89,5.89,17.67,11.78,26.51,20.62,14.73,14.73,26.51,32.4,35.35,53.02,47.13,0,97.21-2.95,132.55,32.4,17.67,17.67,29.46,47.13,32.4,73.64,0,58.91-47.13,106.04-106.04,106.04h-153.17c-23.56,0-55.97-14.73-73.64-32.4-41.24-41.24-35.35-88.37-17.67-135.5h-76.59c-20.62,67.75-17.67,135.5,35.35,188.52,35.35,35.35,82.48,53.02,126.66,50.08h153.17c53.02,0,103.1-14.73,141.39-53.02,58.91-70.7,55.97-185.57-8.84-250.37h0ZM2729.82,1668.94h-53.02c-23.56,0-55.97-14.73-73.64-32.4-17.67-17.67-29.46-47.13-32.4-73.64,0-58.91,50.08-108.99,106.04-106.04h153.17c23.56,0,55.97,14.73,73.64,32.4,41.24,41.24,32.4,91.31,17.67,135.5h76.59c20.62-67.75,17.67-135.5-35.35-188.52-35.35-35.35-82.48-53.02-126.66-50.08h-153.17c-100.15,0-179.68,79.53-176.73,176.73,0,94.26,79.53,179.68,173.79,173.79h111.93c-11.78-5.89-20.62-14.73-29.46-23.56-14.73-14.73-26.51-26.51-32.4-44.19h0Z"/></svg>