<?xml version="1.0" encoding="UTF-8"?><svg id="Interact_With_Your_Viewers" xmlns="http://www.w3.org/2000/svg" viewBox="0 0 3646.59 2393.61"><defs><style>.cls-1{fill:#ffe435;}.cls-1,.cls-2,.cls-3{stroke-width:0px;}.cls-3{fill:#2e3192;}</style></defs><path class="cls-2" d="M3007.72,1061.8c37.35,28.84,54.99,72.63,47.52,135.5,0,.62-.21,1.04-.21,1.66l-62.87,649.68c-2.28,29.05-7.32,54.94-15.2,77.5-7.89,22.56-18.62,41.81-32.32,57.58-29.26,33.62-69.72,50.22-122.84,47.94h-206.88c-35.69,1.86-66.19-7.89-91.71-28.22-18.68-15.15-34.24-35.49-46.48-61.22h-88.61c12.04,35.07,11.42,68.27,1.87,97.74-9.75,30.29-28.84,56.02-53.33,75.53-23.86,18.88-52.91,31.95-83.41,36.93-29.67,4.98-60.8,2.28-89.85-9.75-33.61,35.07-69.1,57.27-106.03,67.44-37.14,10.16-74.7,8.09-112.67-5.19-36.11,40.05-75.95,65.15-119.94,74.49-44.82,9.75-92.34,2.91-142.76-20.75-15.77,12.24-32.16,22-49.38,29.05-24.28,10.17-49.8,14.73-76.57,13.9-63.91-1.86-106.86-20.75-141.1-51.46-32.79-29.25-54.57-66.6-79.47-109.76l-141.31-246.51h-109.56c-6.43,31.74-17.43,58.72-34.03,80.3-28.01,36.1-68.89,55.19-125.75,53.95h-189.65c-47.31,7.68-87.77-3.94-119.52-40.67-28.22-32.58-47.31-85.49-55.61-163.1-.21-.83-.21-1.86-.42-2.9l-49.38-612.13c-9.75-65.98,1.04-112.67,27.6-144.62,26.76-32.17,67.23-46.69,116.82-48.97,1.45-.21,2.7-.21,4.15-.21h252.94v.21c47.73-.63,88.81,7.47,119.94,27.59,25.1,16.19,43.16,39.01,52.29,70.14h206.04c51.88-34.86,100.23-62.25,153.76-79.06,52.71-16.39,108.94-22.2,176.38-14.11l69.51-82.17c1.24-1.66,2.49-3.11,4.15-4.56,19.71-18.68,41.71-34.03,65.36-46.48,24.9-13.08,51.46-23.04,79.27-30.3,43.99-11.41,90.26-15.77,135.49-14.94,51.26,1.04,101.06,8.51,144.01,19.71,82.17,21.79,153.13,71.38,222.02,119.73,15.36,10.79,30.71,21.58,48.97,33.62.63.41,1.25.83,1.87,1.24l100.02,66.82c4.98-7.06,10.79-13.49,17.43-19.3,28.63-25.73,69.51-38.39,122.21-38.39v-.21h232.82c.83,0,1.87,0,2.7.21,59.55-.21,108.1,10.58,141.72,36.52ZM2988.84,1189.21c4.35-36.94-3.74-61.01-22-75.12-20.96-16.18-55.61-22.82-100.64-22.82-1.03,0-2.07.2-3.11.2h-232.81v-.2c-35.49,0-61.63,7.05-77.61,21.58-6.64,6.01-11.62,13.69-15.35,23.03-.42,3.94-1.66,7.68-3.53,11.41-2.08,8.72-3.11,18.68-3.11,29.67,0,1.04.2,2.08.2,3.12v720.85c9.13,22.62,20.34,39.63,33.83,50.22,12.45,9.96,27.8,14.73,46.48,13.9,1.24-.21,2.69-.21,3.94-.21h208.33c32.16,1.66,55.4-7.05,70.96-24.9,17.64-20.33,27.81-52.91,31.34-96.69v-.63l62.87-650.3c0-1.04,0-2.08.21-3.11ZM2466.56,1146.46l-112.88-74.91c-.62-.41-1.25-.83-1.87-1.24-14.73-9.75-32.37-22.2-50.01-34.65-64.11-44.82-129.89-91.1-201.06-109.77-38.39-10.17-82.8-16.81-128.03-17.64-39.63-.83-79.89,2.91-117.86,12.87-22.62,5.81-44.61,13.9-64.95,24.69-18.05,9.54-34.86,21.16-49.8,35.27l-75.53,89.85c-2.28,4.57-5.6,8.3-9.54,11.41l-208.33,248.17c3.11,15.77,9.33,29.05,17.84,39.84,9.96,12.25,23.24,21.38,38.39,27.19,16.18,6.01,34.86,8.3,54.36,6.64,31.75-2.7,65.78-15.77,96.28-40.26l57.07-47.1c14.52-12.04,26.76-23.24,39.01-34.24,26.76-24.48,53.32-48.76,81.54-65.57,64.95-38.8,129.69-40.05,193.6,67.23l.62,1.04,328.06,590.34h110.81v-695.54c0-.83,0-1.87.2-2.7,0-10.79.63-21.17,2.08-30.92ZM2326.5,2020.04c6.01-18.47,5.39-40.05-4.36-63.5l-12.66-23.24c-4.98-4.77-8.51-11-9.96-17.84l-332-597.6c-36.93-61.63-70.13-63.08-102.3-43.99-22.82,13.48-46.89,35.48-70.96,57.47-14.53,13.28-29.05,26.56-41.29,36.73l-57.07,47.1-.41.21c-41.5,33.41-88.4,51.46-132.8,54.99-29.26,2.49-57.48-1.25-83.21-11-26.35-9.96-49.59-25.94-67.02-47.72-18.88-23.45-31.33-53.33-34.24-88.61h.21c-.62-8.5,1.87-17.01,7.68-24.07l181.35-215.8c-38.18-.62-72,4.57-103.75,14.53-48.35,15.15-93.58,41.29-142.97,75.11-5.6,4.36-12.86,7.06-20.54,7.06h-208.95v394.87l.83,252.53h121.59c5.81,0,11.52,1.51,16.53,4.36,5,2.85,9.31,7.05,12.32,12.45l151.06,263.31c21.99,38.39,41.5,71.59,65.77,93.38,22.83,20.54,52.71,33.2,98.77,34.44,17.23.42,33.83-2.49,49.39-8.92,9.54-3.94,19.09-9.34,28.43-16.18l-97.94-183.02c-8.72-16.18-2.49-36.31,13.69-44.82,16.19-8.71,36.31-2.49,44.82,13.7l106.45,198.99c39.63,20.13,75.53,26.35,107.69,19.5,29.47-6.43,57.27-24.07,83.42-52.7l-153.35-240.7c-9.75-15.36-5.39-35.9,10.17-45.86,15.36-9.75,35.9-5.39,45.86,10.17l161.43,253.56c28.43,11.62,55.61,14.11,81.55,7.06,24.69-6.85,49.59-22.62,74.29-48.35l-146.29-275.56c-8.72-16.18-2.49-36.52,13.9-45.03,16.19-8.71,36.52-2.49,45.03,13.91l151.47,285.1c19.72,11.41,42.54,14.32,64.33,10.79,19.09-3.11,37.56-11.41,52.7-23.24,14.53-11.62,25.94-26.56,31.34-43.57ZM1024.64,1497.97l-1.24-351.3v-2.08c-3.53-21.99-13.08-36.72-27.19-45.85-19.29-12.45-48.14-17.23-83.62-16.81h-.41v.21h-254.4c-31.33,1.45-55.19,8.92-68.68,25.1-14.53,17.23-19.51,47.11-12.66,93.38.21,1.04.21,1.87.21,2.9l49.38,612.75v1.04c6.64,63.49,20.34,104.16,39.64,126.57,15.35,17.85,36.31,22.83,61.42,18.26,1.86-.41,3.94-.62,5.81-.62v-.21h189.86c1.24,0,2.49,0,3.53.21,33.61.62,56.85-9.34,71.38-28.22,17.01-21.99,25.31-56.44,26.56-100.84h-.21v-334.49h.62Z"/><path class="cls-3" d="M2966.84,1114.09c18.26,14.11,26.35,38.18,22,75.12-.21,1.03-.21,2.07-.21,3.11l-62.87,650.3v.63c-3.53,43.78-13.7,76.36-31.34,96.69-15.56,17.85-38.8,26.56-70.96,24.9h-208.33c-1.25,0-2.7,0-3.94.21-18.68.83-34.03-3.94-46.48-13.9-13.49-10.59-24.7-27.6-33.83-50.22v-720.85c0-1.04-.2-2.08-.2-3.12,0-10.99,1.03-20.95,3.11-29.67,1.87-3.73,3.11-7.47,3.53-11.41,3.73-9.34,8.71-17.02,15.35-23.03,15.98-14.53,42.12-21.58,77.61-21.58v.2h232.81c1.04,0,2.08-.2,3.11-.2,45.03,0,79.68,6.64,100.64,22.82ZM2802.29,1734.72c0-24.9-20.12-45.02-45.02-45.02s-45.03,20.12-45.03,45.02,20.13,45.03,45.03,45.03,45.02-20.13,45.02-45.03Z"/><path class="cls-3" d="M2757.27,1689.7c24.9,0,45.02,20.12,45.02,45.02s-20.12,45.03-45.02,45.03-45.03-20.13-45.03-45.03,20.13-45.02,45.03-45.02Z"/><path class="cls-1" d="M2353.68,1071.55l112.88,74.91c-1.45,9.75-2.08,20.13-2.08,30.92-.2.83-.2,1.87-.2,2.7v695.54h-110.81l-328.06-590.34-.62-1.04c-63.91-107.28-128.65-106.03-193.6-67.23-28.22,16.81-54.78,41.09-81.54,65.57-12.25,11-24.49,22.2-39.01,34.24l-57.07,47.1c-30.5,24.49-64.53,37.56-96.28,40.26-19.5,1.66-38.18-.63-54.36-6.64-15.15-5.81-28.43-14.94-38.39-27.19-8.51-10.79-14.73-24.07-17.84-39.84l208.33-248.17c3.94-3.11,7.26-6.84,9.54-11.41l75.53-89.85c14.94-14.11,31.75-25.73,49.8-35.27,20.34-10.79,42.33-18.88,64.95-24.69,37.97-9.96,78.23-13.7,117.86-12.87,45.23.83,89.64,7.47,128.03,17.64,71.17,18.67,136.95,64.95,201.06,109.77,17.64,12.45,35.28,24.9,50.01,34.65.62.41,1.25.83,1.87,1.24Z"/><path class="cls-1" d="M2322.14,1956.54c9.75,23.45,10.37,45.03,4.36,63.5-5.4,17.01-16.81,31.95-31.34,43.57-15.14,11.83-33.61,20.13-52.7,23.24-21.79,3.53-44.61.62-64.33-10.79l-151.47-285.1c-8.51-16.4-28.84-22.62-45.03-13.91-16.39,8.51-22.62,28.85-13.9,45.03l146.29,275.56c-24.7,25.73-49.6,41.5-74.29,48.35-25.94,7.05-53.12,4.56-81.55-7.06l-161.43-253.56c-9.96-15.56-30.5-19.92-45.86-10.17-15.56,9.96-19.92,30.5-10.17,45.86l153.35,240.7c-26.15,28.63-53.95,46.27-83.42,52.7-32.16,6.85-68.06.63-107.69-19.5l-106.45-198.99c-8.51-16.19-28.63-22.41-44.82-13.7-16.18,8.51-22.41,28.64-13.69,44.82l97.94,183.02c-9.34,6.84-18.89,12.24-28.43,16.18-15.56,6.43-32.16,9.34-49.39,8.92-46.06-1.24-75.94-13.9-98.77-34.44-24.27-21.79-43.78-54.99-65.77-93.38l-151.06-263.31c-3.01-5.4-7.32-9.6-12.32-12.45-5.01-2.85-10.72-4.36-16.53-4.36h-121.59l-.83-252.53v-394.87h208.95c7.68,0,14.94-2.7,20.54-7.06,49.39-33.82,94.62-59.96,142.97-75.11,31.75-9.96,65.57-15.15,103.75-14.53l-181.35,215.8c-5.81,7.06-8.3,15.57-7.68,24.07h-.21c2.91,35.28,15.36,65.16,34.24,88.61,17.43,21.78,40.67,37.76,67.02,47.72,25.73,9.75,53.95,13.49,83.21,11,44.4-3.53,91.3-21.58,132.8-54.99l.41-.21,57.07-47.1c12.24-10.17,26.76-23.45,41.29-36.73,24.07-21.99,48.14-43.99,70.96-57.47,32.17-19.09,65.37-17.64,102.3,43.99l332,597.6c1.45,6.84,4.98,13.07,9.96,17.84l12.66,23.24Z"/><path class="cls-3" d="M1023.4,1146.67l1.24,351.3h-.62v334.49h.21c-1.25,44.4-9.55,78.85-26.56,100.84-14.53,18.88-37.77,28.84-71.38,28.22-1.04-.21-2.29-.21-3.53-.21h-189.86v.21c-1.87,0-3.95.21-5.81.62-25.11,4.57-46.07-.41-61.42-18.26-19.3-22.41-33-63.08-39.64-126.57v-1.04l-49.38-612.75c0-1.03,0-1.86-.21-2.9-6.85-46.27-1.87-76.15,12.66-93.38,13.49-16.18,37.35-23.65,68.68-25.1h254.4v-.21h.41c35.48-.42,64.33,4.36,83.62,16.81,14.11,9.13,23.66,23.86,27.19,45.85v2.08ZM842.46,1734.72c0-24.9-20.13-45.02-45.03-45.02s-45.03,20.12-45.03,45.02,20.13,45.03,45.03,45.03,45.03-20.13,45.03-45.03Z"/><path class="cls-3" d="M797.43,1689.7c24.9,0,45.03,20.12,45.03,45.02s-20.13,45.03-45.03,45.03-45.03-20.13-45.03-45.03,20.13-45.02,45.03-45.02Z"/><path class="cls-2" d="M1940.92,410.93c-.26,0-12.11-5.6-35.55-16.8-23.44-11.19-42.58-16.8-57.42-16.8-29.17,0-43.75,13.54-43.75,40.62,0,15.37,13.54,31.38,40.62,48.05,43.23,26.31,68.36,42.45,75.39,48.44,27.08,23.7,40.62,52.09,40.62,85.16,0,70.31-43.49,117.19-130.47,140.62,2.08,41.41,3.12,64.32,3.12,68.75,0,2.6-2.87,4.16-8.59,4.69-3.91.52-9.51.52-16.8,0-8.34-.78-12.37-1.17-12.11-1.17-3.39,0-8.34.45-14.84,1.37-6.51.91-11.33,1.37-14.45,1.37-2.09,0-4.04-.39-5.86-1.17-1.56-2.34-2.34-8.73-2.34-19.14,0-8.34.52-21.23,1.56-38.67-69.79,0-105.21-4.82-106.25-14.45-.26-1.82-.13-4.3.39-7.42.26-4.16.39-6.77.39-7.81,0-10.41-.92-22.91-2.73-37.5-.52-4.42-2.48-12.63-5.86-24.61-3.12-10.94-4.69-19.14-4.69-24.61s2.99-8.2,8.98-8.2c6.51,0,18.03,1.89,34.57,5.66,16.53,3.78,29.36,5.66,38.48,5.66,45.83,0,68.75-14.19,68.75-42.58,0-14.84-13.15-31.51-39.45-50-42.97-29.94-67.58-48.05-73.83-54.3-26.31-25-39.45-52.99-39.45-83.98,0-34.63,12.63-65.23,37.89-91.8,23.96-25.26,53.38-41.27,88.28-48.05,0,2.34-.39-3.91-1.17-18.75-.52-11.19-.39-19.92.39-26.17,1.04-8.85,3.52-13.28,7.42-13.28h67.19c3.12,0,5.08,3.91,5.86,11.72.78,5.73.91,13.67.39,23.83-.52,13.81-.78,19.79-.78,17.97,15.36,1.04,39.97,6.9,73.83,17.58,38.8,12.24,58.2,22.79,58.2,31.64,0,1.82-.78,5.21-2.34,10.16-3.65,7.81-8.47,19.79-14.45,35.94-1.83,8.86-5.08,21.87-9.77,39.06-1.83,5.99-4.95,8.98-9.38,8.98Z"/></svg>