<?xml version="1.0" encoding="UTF-8"?><svg id="Reach_Your_Audience" xmlns="http://www.w3.org/2000/svg" viewBox="0 0 3646.59 2393.61"><defs><style>.cls-1{fill:#0071bc;}.cls-1,.cls-2,.cls-3{stroke-width:0px;}.cls-4{stroke-dasharray:0 0 24.38 24.38;}.cls-4,.cls-5{fill:none;stroke:#000;stroke-miterlimit:10;stroke-width:32px;}.cls-2{fill:#5fabff;}.cls-3{fill:#555;}</style></defs><g id="Ad"><rect class="cls-2" x="1132.56" y="137.84" width="1283.97" height="851.43" rx="70.68" ry="70.68"/><rect class="cls-3" x="1185.03" y="173.22" width="977.57" height="91.01" rx="45.5" ry="45.5"/><rect class="cls-3" x="1185.03" y="704.03" width="1173.13" height="45.5" rx="22.75" ry="22.75"/><rect class="cls-3" x="1185.03" y="775.56" width="1052.03" height="45.5" rx="21.55" ry="21.55"/><rect class="cls-3" x="1178.74" y="310.57" width="1185.71" height="347.12" rx="97.87" ry="97.87"/><rect class="cls-3" x="1182.56" y="847.09" width="1143.36" height="48.23" rx="23.12" ry="23.12"/></g><g id="User_3"><path class="cls-1" d="M252.71,2311.79h700.24s-67.76-321.88-350.12-321.88-350.12,321.88-350.12,321.88Z"/><circle class="cls-1" cx="602.82" cy="1768.26" r="221.65"/></g><g id="User_2"><path class="cls-3" d="M1424.43,2311.79h700.24s-67.76-321.88-350.12-321.88-350.12,321.88-350.12,321.88Z"/><circle class="cls-3" cx="1774.54" cy="1768.26" r="221.65"/></g><g id="User_1"><path class="cls-1" d="M2596.15,2311.79h700.24s-67.76-321.88-350.12-321.88-350.12,321.88-350.12,321.88Z"/><circle class="cls-1" cx="2946.27" cy="1768.26" r="221.65"/></g><g id="Connectors"><polyline class="cls-5" points="1774.54 1032.67 1774.54 1156.91 602.82 1156.91 602.82 1546.61"/><polyline class="cls-5" points="1774.54 1156.91 2946.27 1156.91 2946.27 1546.61"/><line class="cls-5" x1="1774.54" y1="1546.61" x2="1774.54" y2="1534.61"/><line class="cls-4" x1="1774.54" y1="1510.23" x2="1774.54" y2="1181.1"/><line class="cls-5" x1="1774.54" y1="1168.91" x2="1774.54" y2="1156.91"/></g></svg>